<?xml version="1.0" encoding="UTF-8" standalone="no"?>
<!-- Created with Inkscape (http://www.inkscape.org/) -->

<svg
   width="127.99999"
   height="127.99999"
   viewBox="0 0 33.866664 33.866664"
   version="1.1"
   id="svg1"
   inkscape:export-filename="coal.svg"
   inkscape:export-xdpi="96"
   inkscape:export-ydpi="96"
   inkscape:version="1.3.2 (091e20e, 2023-11-25, custom)"
   sodipodi:docname="polution.svg"
   xmlns:inkscape="http://www.inkscape.org/namespaces/inkscape"
   xmlns:sodipodi="http://sodipodi.sourceforge.net/DTD/sodipodi-0.dtd"
   xmlns="http://www.w3.org/2000/svg"
   xmlns:svg="http://www.w3.org/2000/svg">
  <sodipodi:namedview
     id="namedview1"
     pagecolor="#ffffff"
     bordercolor="#666666"
     borderopacity="1.0"
     inkscape:showpageshadow="2"
     inkscape:pageopacity="0.0"
     inkscape:pagecheckerboard="0"
     inkscape:deskcolor="#d1d1d1"
     inkscape:document-units="px"
     showguides="false"
     inkscape:zoom="2.8284271"
     inkscape:cx="-23.157747"
     inkscape:cy="102.70726"
     inkscape:window-width="1920"
     inkscape:window-height="986"
     inkscape:window-x="-11"
     inkscape:window-y="-11"
     inkscape:window-maximized="1"
     inkscape:current-layer="layer1" />
  <defs
     id="defs1">
    <inkscape:path-effect
       effect="fillet_chamfer"
       id="path-effect12"
       is_visible="true"
       lpeversion="1"
       nodesatellites_param="F,0,1,1,0,2,0,1 @ F,0,1,1,0,2,0,1 @ F,0,1,1,0,2,0,1 @ F,0,1,1,0,2,0,1 @ F,0,1,1,0,2,0,1 @ F,0,0,1,0,2,0,1 @ F,0,1,1,0,2,0,1 @ F,0,1,1,0,2,0,1"
       radius="0"
       unit="px"
       method="auto"
       mode="F"
       chamfer_steps="1"
       flexible="false"
       use_knot_distance="true"
       apply_no_radius="true"
       apply_with_radius="true"
       only_selected="false"
       hide_knots="false" />
    <inkscape:path-effect
       effect="fillet_chamfer"
       id="path-effect8"
       is_visible="true"
       lpeversion="1"
       nodesatellites_param="F,0,0,1,0,2,0,1 @ F,0,0,1,0,2,0,1 @ F,0,0,1,0,2,0,1 @ F,0,0,1,0,2,0,1 @ F,0,0,1,0,2,0,1 @ F,0,0,1,0,2,0,1 @ F,0,0,1,0,2,0,1 @ F,0,0,1,0,2,0,1"
       radius="0"
       unit="px"
       method="auto"
       mode="F"
       chamfer_steps="1"
       flexible="false"
       use_knot_distance="true"
       apply_no_radius="true"
       apply_with_radius="true"
       only_selected="false"
       hide_knots="false" />
    <inkscape:path-effect
       effect="fillet_chamfer"
       id="path-effect7"
       is_visible="true"
       lpeversion="1"
       nodesatellites_param="F,0,0,1,0,2,0,1 @ F,0,0,1,0,2,0,1 @ F,0,0,1,0,2,0,1 @ F,0,0,1,0,2,0,1 @ F,0,0,1,0,2,0,1 @ F,0,0,1,0,2,0,1 @ F,0,0,1,0,2,0,1 @ F,0,0,1,0,2,0,1"
       radius="0"
       unit="px"
       method="auto"
       mode="F"
       chamfer_steps="1"
       flexible="false"
       use_knot_distance="true"
       apply_no_radius="true"
       apply_with_radius="true"
       only_selected="false"
       hide_knots="false" />
    <inkscape:path-effect
       effect="fillet_chamfer"
       id="path-effect6"
       is_visible="true"
       lpeversion="1"
       nodesatellites_param="F,0,0,1,0,2,0,1 @ F,0,0,1,0,2,0,1 @ F,0,0,1,0,2,0,1 @ F,0,0,1,0,2,0,1 @ F,0,0,1,0,2,0,1 @ F,0,0,1,0,2,0,1 @ F,0,0,1,0,2,0,1 @ F,0,0,1,0,2,0,1"
       radius="0"
       unit="px"
       method="auto"
       mode="F"
       chamfer_steps="1"
       flexible="false"
       use_knot_distance="true"
       apply_no_radius="true"
       apply_with_radius="true"
       only_selected="false"
       hide_knots="false" />
    <filter
       inkscape:collect="always"
       style="color-interpolation-filters:sRGB"
       id="filter6"
       x="-0.076725728"
       y="-0.053026978"
       width="1.1534501"
       height="1.1061513">
      <feGaussianBlur
         inkscape:collect="always"
         stdDeviation="0.42333333"
         id="feGaussianBlur6" />
    </filter>
    <filter
       inkscape:collect="always"
       style="color-interpolation-filters:sRGB"
       id="filter6-1"
       x="-0.27519344"
       y="-0.19031359"
       width="1.5503866"
       height="1.3808603">
      <feGaussianBlur
         inkscape:collect="always"
         stdDeviation="1.6933333"
         id="feGaussianBlur6-8" />
    </filter>
  </defs>
  <g
     inkscape:label="Layer 1"
     inkscape:groupmode="layer"
     id="layer1">
    <path
       d="m 14.597367,28.149122 2.555266,0.851755 A 4.0892777,4.0892777 172.37244 0 0 20.7141,28.523932 L 23.735899,26.5094 a 3.7370354,3.7370354 118.15497 0 0 1.6641,-3.109401 L 25.4,18.933333 A 3.737034,3.737034 61.845039 0 0 23.735899,15.823932 L 20.714101,13.8094 A 5.1732148,5.1732148 54.826912 0 1 18.564929,10.759714 L 17.418404,6.1736182 A 1.4094385,1.4094385 21.136843 0 0 15.269232,5.3427336 L 12.247434,7.357266 A 4.473168,4.473168 122.22002 0 0 10.30049,10.446565 L 8.7495092,21.303434 a 3.9999998,3.9999998 71.565049 0 0 1.1313709,3.394112 l 1.4049059,1.404907 a 8.472138,8.472138 31.717474 0 0 3.311581,2.046669 z"
       style="opacity:1;fill:#000000;fill-opacity:1;stroke:none;stroke-width:3.175;stroke-linecap:round;stroke-linejoin:round;stroke-dasharray:none;stroke-opacity:1"
       id="path1-9-0-9-2"
       sodipodi:nodetypes="ccccccccc"
       mask="none"
       inkscape:original-d="m 12.7,27.516666 6.35,2.116667 6.349999,-4.233334 10e-7,-8.466666 -6.35,-4.233334 -2.116667,-8.4666658 -6.35,4.2333332 -2.1166665,14.8166666 z"
       inkscape:path-effect="#path-effect12" />
    <path
       d="m 14.597367,28.149122 2.555266,0.851755 A 4.0892777,4.0892777 172.37244 0 0 20.7141,28.523932 L 23.735899,26.5094 a 3.7370354,3.7370354 118.15497 0 0 1.6641,-3.109401 L 25.4,18.933333 A 3.737034,3.737034 61.845039 0 0 23.735899,15.823932 L 20.714101,13.8094 A 5.1732148,5.1732148 54.826912 0 1 18.564929,10.759714 L 17.418404,6.1736184 A 1.4094385,1.4094385 21.136842 0 0 15.269232,5.3427338 L 12.247434,7.3572664 A 4.4731684,4.4731684 122.22002 0 0 10.30049,10.446566 L 8.7495088,21.303434 a 3.9999993,3.9999993 71.565049 0 0 1.1313709,3.394112 l 1.4049063,1.404907 a 8.4721391,8.4721391 31.717472 0 0 3.311581,2.046669 z"
       style="display:inline;mix-blend-mode:normal;fill:none;fill-opacity:1;stroke:#ff4000;stroke-width:1.05833;stroke-linecap:round;stroke-linejoin:round;stroke-dasharray:none;stroke-opacity:1;filter:url(#filter6-1)"
       id="path1-9-0-9-2-2-1-9"
       sodipodi:nodetypes="ccccccccc"
       mask="none"
       inkscape:original-d="m 12.7,27.516666 6.35,2.116667 6.349999,-4.233334 10e-7,-8.466666 -6.35,-4.233334 -2.116667,-8.4666656 -6.35,4.2333334 -2.116667,14.8166662 z"
       inkscape:path-effect="#path-effect8" />
    <path
       d="m 14.597367,28.149122 2.555266,0.851755 A 4.0892777,4.0892777 172.37244 0 0 20.7141,28.523932 L 23.735899,26.5094 a 3.7370354,3.7370354 118.15497 0 0 1.6641,-3.109401 L 25.4,18.933333 A 3.737034,3.737034 61.845039 0 0 23.735899,15.823932 L 20.714101,13.8094 A 5.1732148,5.1732148 54.826912 0 1 18.564929,10.759714 L 17.418404,6.1736184 A 1.4094385,1.4094385 21.136842 0 0 15.269232,5.3427338 L 12.247434,7.3572664 A 4.4731682,4.4731682 122.22002 0 0 10.30049,10.446566 L 8.7495092,21.303434 a 3.9999997,3.9999997 71.565049 0 0 1.1313709,3.394112 l 1.4049059,1.404907 a 8.472138,8.472138 31.717474 0 0 3.311581,2.046669 z"
       style="display:inline;fill:none;fill-opacity:1;stroke:#ff7000;stroke-width:0.529167;stroke-linecap:round;stroke-linejoin:round;stroke-dasharray:none;stroke-opacity:1;filter:url(#filter6)"
       id="path1-9-0-9-2-2-1"
       sodipodi:nodetypes="ccccccccc"
       mask="none"
       inkscape:original-d="m 12.7,27.516666 6.35,2.116667 6.349999,-4.233334 10e-7,-8.466666 -6.35,-4.233334 -2.116667,-8.4666656 -6.35,4.2333334 -2.1166665,14.8166662 z"
       inkscape:path-effect="#path-effect7" />
    <path
       d="m 14.597367,28.149122 2.555266,0.851755 A 4.0892777,4.0892777 172.37244 0 0 20.7141,28.523932 L 23.735899,26.5094 a 3.7370354,3.7370354 118.15497 0 0 1.6641,-3.109401 L 25.4,18.933333 A 3.737034,3.737034 61.845039 0 0 23.735899,15.823932 L 20.714101,13.8094 A 5.1732148,5.1732148 54.826912 0 1 18.564929,10.759714 L 17.418404,6.1736182 A 1.4094385,1.4094385 21.136843 0 0 15.269232,5.3427336 L 12.247434,7.357266 A 4.473168,4.473168 122.22002 0 0 10.30049,10.446565 L 8.7495092,21.303434 a 3.9999998,3.9999998 71.565049 0 0 1.1313709,3.394112 l 1.4049059,1.404907 a 8.472138,8.472138 31.717474 0 0 3.311581,2.046669 z"
       style="display:inline;fill:none;fill-opacity:1;stroke:#ffe000;stroke-width:0.264583;stroke-linecap:round;stroke-linejoin:round;stroke-dasharray:none;stroke-opacity:1"
       id="path1-9-0-9-2-2"
       sodipodi:nodetypes="ccccccccc"
       mask="none"
       inkscape:original-d="m 12.7,27.516666 6.35,2.116667 6.349999,-4.233334 10e-7,-8.466666 -6.35,-4.233334 -2.116667,-8.4666658 -6.35,4.2333332 -2.1166665,14.8166666 z"
       inkscape:path-effect="#path-effect6" />
  </g>
</svg>
